<svg width="54" height="57" viewBox="0 0 54 57" fill="none" xmlns="http://www.w3.org/2000/svg">
<path d="M4.9788 51.3222C3.16005 50.2488 0.736608 48.2519 0.806921 44.8957C0.867858 42.0457 4.89911 37.5128 15.235 35.7785C25.571 34.0441 31.2757 34.8691 35.9069 35.366C40.5382 35.8628 43.4304 37.3488 43.4304 37.3488L39.2116 45.866L4.9788 51.3222Z" fill="#04C1EA"/>
<path d="M23.3116 43.5363L13.81 46.0582L6.19754 49.4191C6.19754 49.4191 5.25067 51.416 5.72411 51.941C6.19754 52.466 13.1819 56.4597 25.5663 56.5066C39.2725 56.5582 46.5616 52.991 49.0835 51.1535C51.6054 49.316 44.096 38.7644 44.096 38.7644L37.8288 36.1863L30.7085 36.8754L26.5085 38.9753L23.3116 43.5363Z" fill="#F5C876"/>
<path d="M29.4944 42.6785L40.1116 42.116C40.1116 42.116 38.7241 39.4535 38.2132 38.2582C37.6319 36.8988 37.5241 36.116 37.5241 36.116C37.5241 36.116 38.771 35.7691 40.8991 36.3082C43.0272 36.8472 50.5929 39.2753 52.4444 43.9535C54.0569 48.0316 49.0507 51.1863 49.0507 51.1863C49.0507 51.1863 45.6757 48.8847 44.4147 47.68C42.4413 45.7957 41.3725 44.216 41.3725 44.216L29.3819 44.6378L28.6694 44.1644L29.4944 42.6785Z" fill="#F2A159"/>
<path d="M6.67567 44.3753C5.33505 45.716 6.88661 47.366 6.88661 47.366C6.88661 47.366 3.84442 48.0503 3.94755 49.8316C3.99911 50.7222 5.20848 51.7722 5.73348 51.9316C6.25848 52.091 6.15536 51.0691 6.88661 50.3566C8.77567 48.5191 14.6022 48.0972 18.6429 47.68C22.6835 47.2628 24.3429 45.866 25.0975 45.3691C27.0944 44.0566 26.3585 40.3394 28.5335 38.6847C32.0304 36.0222 40.0272 36.3878 39.971 36.0925C39.9147 35.7972 33.3429 34.3207 27.3194 36.7582C23.2929 38.3894 23.3679 41.7972 20.5366 42.7441C17.7054 43.691 8.82723 42.2238 6.67567 44.3753Z" fill="#DCECF6"/>
<path d="M12.3288 45.641C11.4804 45.9503 12.2819 46.8457 12.6757 47.0707C13.4632 47.5207 14.5272 47.9941 14.5272 47.9941C14.5272 47.9941 12.2913 49.691 12.91 50.5769C13.3647 51.2285 17.5741 49.6113 17.5741 49.6113C17.6163 49.6113 20.171 51.6972 21.2585 51.7019C22.0694 51.7066 21.521 48.6785 21.521 48.6785C21.521 48.6785 24.9382 47.9519 24.9382 46.9113C24.9382 46.1003 23.2413 46.3347 23.2413 46.3347C23.2413 46.3347 13.1772 45.3316 12.3288 45.641Z" fill="#EE594A"/>
<path d="M19.571 43.5597C18.685 43.48 17.0538 45.3129 17.0538 45.3129C17.0538 45.3129 12.2491 44.9847 12.1694 45.7957C12.0897 46.6066 14.7147 46.9535 14.7147 47.4128C14.7147 47.8722 12.596 49.5691 12.7882 50.1082C12.9804 50.6472 17.1757 48.2191 17.4897 48.3363C17.8038 48.4535 20.9819 51.5238 21.5491 50.9988C22.0366 50.5488 21.535 47.9097 21.535 47.9097C21.535 47.9097 24.7741 47.141 24.7319 46.5597C24.6944 45.9832 20.6491 45.5566 20.6491 45.5566C20.6491 45.5566 20.4194 43.6347 19.571 43.5597Z" fill="#F79228"/>
<path d="M25.5569 6.53785L23.3397 6.37847L25.5991 22.9066C25.5991 22.9066 27.8632 41.53 28.0179 42.6457C28.2147 44.0707 28.5663 44.83 29.8225 44.6378C31.0788 44.4457 30.9522 43.2128 30.8725 42.2519C30.7929 41.291 28.7819 23.816 28.7819 23.816L25.5569 6.53785Z" fill="#4EA4B0"/>
<path d="M23.7429 3.73003C23.7429 3.73003 13.0413 4.90191 6.15067 12.5519C0.591295 18.7253 -0.313392 24.2707 0.0803582 24.3316C0.741296 24.4347 2.42411 23.8722 4.26161 24.6363C6.09911 25.4003 7.16786 26.98 7.78192 26.98C8.39598 26.98 10.6366 25.4519 13.8007 25.9113C16.96 26.3707 19.1022 28.255 19.7679 28.255C20.4335 28.255 23.0819 26.2675 27.16 26.0613C30.8819 25.8738 33.3804 26.7738 33.8913 26.7222C34.4022 26.6707 35.396 23.516 39.3241 22.3441C43.2522 21.1722 44.5507 22.1332 45.1132 22.1332C45.6757 22.1332 45.9804 19.3816 48.7835 18.3082C51.5866 17.2394 52.66 17.6941 53.2694 17.5957C53.8788 17.4972 51.0241 10.6675 40.9038 6.04097C32.5366 2.22066 23.7429 3.73003 23.7429 3.73003Z" fill="#EE5948"/>
<path d="M24.235 4.50347C24.235 4.50347 17.2694 6.58941 12.4225 14.1878C8.45692 20.4035 8.39598 24.9972 8.64911 25.2503C8.90223 25.5035 11.2507 24.3316 14.1054 24.5894C16.96 24.8425 19.3694 26.966 19.51 26.4785C19.6882 25.8597 19.6319 20.3753 20.2788 15.7582C21.4835 7.1191 24.296 5.23941 24.296 5.23941C24.296 5.23941 28.046 7.75191 30.8913 14.8441C32.6772 19.2925 33.5632 23.8628 33.9335 24.4441C34.0975 24.7019 35.6397 22.3394 38.846 21.2988C41.8132 20.3332 44.4054 21.0785 44.7616 20.8769C45.1179 20.6707 41.7897 13.4519 36.235 9.29878C29.9632 4.59722 24.235 4.50347 24.235 4.50347Z" fill="#FEFEFE"/>
<path d="M23.6022 0.0128467C22.2335 0.200347 22.6694 2.20191 22.7725 3.37847C22.8194 3.89878 22.9319 5.89566 24.3054 5.78785C25.4491 5.69878 25.2897 4.17535 25.1866 3.05503C25.0882 1.93003 25.0413 -0.184028 23.6022 0.0128467Z" fill="#4EA4B0"/>
</svg>
