<svg width="46" height="48" viewBox="0 0 46 48" fill="none" xmlns="http://www.w3.org/2000/svg">
<g filter="url(#filter0_i_608_1192)">
<path fill-rule="evenodd" clip-rule="evenodd" d="M45.25 23.125C45.25 29.2335 43.4072 34.7636 39.7215 38.7669V42.8825L38.9313 45.2532H36.5606L34.6229 42.6707C31.4857 44.3159 27.653 45.25 23.125 45.25C21.5033 45.2551 19.8841 45.125 18.284 44.8612L16.8047 46.8336L14.434 47.6239L13.6438 46.8336L12.0633 45.2532V42.8919C11.4627 42.5948 10.8843 42.2724 10.3311 41.9247L9.69258 42.8825L7.32188 43.6727L5.74141 41.302V37.8566C2.58047 33.9433 1 28.7815 1 23.125C1 10.9064 8.37131 1 23.125 1C37.8771 1 45.25 10.9064 45.25 23.125Z" fill="url(#paint0_radial_608_1192)"/>
</g>
<path d="M12.0635 29.4485C16.4278 29.4485 19.9658 25.9105 19.9658 21.5461C19.9658 17.1818 16.4278 13.6438 12.0635 13.6438C7.69914 13.6438 4.16113 17.1818 4.16113 21.5461C4.16113 25.9105 7.69914 29.4485 12.0635 29.4485Z" fill="url(#paint1_radial_608_1192)"/>
<path d="M28.658 29.4485C32.5859 29.4485 35.7701 26.2643 35.7701 22.3364C35.7701 18.4084 32.5859 15.2242 28.658 15.2242C24.7301 15.2242 21.5459 18.4084 21.5459 22.3364C21.5459 26.2643 24.7301 29.4485 28.658 29.4485Z" fill="url(#paint2_radial_608_1192)"/>
<path d="M14.4344 26.2875C16.3206 26.2875 18.1296 25.5382 19.4634 24.2044C20.7972 22.8706 21.5465 21.0616 21.5465 19.1753C21.5465 17.2891 20.7972 15.4801 19.4634 14.1463C18.1296 12.8125 16.3206 12.0632 14.4344 12.0632C12.5481 12.0632 10.7391 12.8125 9.40536 14.1463C8.07158 15.4801 7.32227 17.2891 7.32227 19.1753C7.32227 21.0616 8.07158 22.8706 9.40536 24.2044C10.7391 25.5382 12.5481 26.2875 14.4344 26.2875ZM31.8195 26.2875C33.7058 26.2875 35.5148 25.5382 36.8486 24.2044C38.1824 22.8706 38.9317 21.0616 38.9317 19.1753C38.9317 17.2891 38.1824 15.4801 36.8486 14.1463C35.5148 12.8125 33.7058 12.0632 31.8195 12.0632C29.9333 12.0632 28.1243 12.8125 26.7905 14.1463C25.4567 15.4801 24.7074 17.2891 24.7074 19.1753C24.7074 21.0616 25.4567 22.8706 26.7905 24.2044C28.1243 25.5382 29.9333 26.2875 31.8195 26.2875Z" fill="white"/>
<path d="M16.8045 23.1266C17.6428 23.1266 18.4468 22.7935 19.0396 22.2007C19.6324 21.608 19.9654 20.804 19.9654 19.9656C19.9654 19.1273 19.6324 18.3233 19.0396 17.7305C18.4468 17.1377 17.6428 16.8047 16.8045 16.8047C15.9662 16.8047 15.1622 17.1377 14.5694 17.7305C13.9766 18.3233 13.6436 19.1273 13.6436 19.9656C13.6436 20.804 13.9766 21.608 14.5694 22.2007C15.1622 22.7935 15.9662 23.1266 16.8045 23.1266Z" fill="url(#paint3_linear_608_1192)"/>
<path d="M29.448 23.1266C30.2864 23.1266 31.0904 22.7935 31.6832 22.2007C32.276 21.608 32.609 20.804 32.609 19.9656C32.609 19.1273 32.276 18.3233 31.6832 17.7305C31.0904 17.1377 30.2864 16.8047 29.448 16.8047C28.6097 16.8047 27.8057 17.1377 27.2129 17.7305C26.6201 18.3233 26.2871 19.1273 26.2871 19.9656C26.2871 20.804 26.6201 21.608 27.2129 22.2007C27.8057 22.7935 28.6097 23.1266 29.448 23.1266Z" fill="url(#paint4_linear_608_1192)"/>
<path d="M45.0521 23.125C45.0521 29.1955 43.2204 34.675 39.5742 38.6357C35.9297 42.5932 30.4549 45.0524 23.1247 45.0524C15.7945 45.0524 10.3197 42.5932 6.67518 38.6357C3.02903 34.675 1.19727 29.1955 1.19727 23.125C1.19727 17.0544 3.02903 11.5733 6.67518 7.61422C10.3197 3.65672 15.7945 1.19751 23.1247 1.19751C30.4549 1.19751 35.9297 3.65672 39.5742 7.61422C43.2204 11.5733 45.0521 17.0544 45.0521 23.125Z" fill="url(#paint5_linear_608_1192)" stroke="url(#paint6_radial_608_1192)" stroke-width="0.46875"/>
<path d="M29.4486 27.868H16.8049C14.1863 27.868 12.0635 29.9908 12.0635 32.6095C12.0635 35.2281 14.1863 37.3509 16.8049 37.3509H29.4486C32.0673 37.3509 34.1901 35.2281 34.1901 32.6095C34.1901 29.9908 32.0673 27.868 29.4486 27.868Z" fill="#3A3E67"/>
<path fill-rule="evenodd" clip-rule="evenodd" d="M29.4481 27.868H16.8043C16.0047 27.8676 15.218 28.0696 14.5175 28.4551C13.817 28.8406 13.2254 29.3971 12.7979 30.0728L13.1029 30.9895C13.2604 31.4613 13.5624 31.8716 13.966 32.1624C14.3696 32.4531 14.8545 32.6095 15.3519 32.6095H30.9006C31.3982 32.6094 31.8832 32.4528 32.2868 32.1617C32.6905 31.8707 32.9923 31.46 33.1496 30.9879L33.4546 30.0728C33.0271 29.3971 32.4355 28.8406 31.7349 28.4551C31.0344 28.0696 30.2477 27.8676 29.4481 27.868Z" fill="url(#paint7_linear_608_1192)"/>
<path fill-rule="evenodd" clip-rule="evenodd" d="M16.8048 37.3508H29.4486C29.8643 37.3508 30.2673 37.2971 30.6529 37.1959C31.0401 37.0489 31.382 36.803 31.6446 36.4827C31.9072 36.1624 32.0813 35.779 32.1496 35.3705L32.4562 33.5292C32.4751 33.4159 32.469 33.2999 32.4384 33.1892C32.4078 33.0785 32.3535 32.9758 32.2792 32.8882C32.2049 32.8007 32.1123 32.7304 32.0081 32.6822C31.9038 32.6341 31.7903 32.6092 31.6755 32.6094H14.5764C14.4618 32.6097 14.3487 32.6349 14.2448 32.6832C14.1409 32.7316 14.0488 32.8019 13.9748 32.8894C13.9009 32.9769 13.8468 33.0795 13.8164 33.19C13.786 33.3004 13.78 33.4162 13.7988 33.5292L14.1054 35.3705C14.2476 36.2207 14.8324 36.9035 15.5989 37.1959C15.9846 37.2971 16.3892 37.3508 16.8064 37.3508H16.8048Z" fill="url(#paint8_linear_608_1192)"/>
<path d="M14.4342 6.53162C14.4342 6.53162 13.6439 11.273 8.1123 11.273" stroke="url(#paint9_linear_608_1192)" stroke-width="2.34375" stroke-linecap="round" stroke-linejoin="round"/>
<path d="M14.4342 6.53162C14.4342 6.53162 13.6439 11.273 8.1123 11.273" stroke="url(#paint10_radial_608_1192)" stroke-width="2.34375" stroke-linecap="round" stroke-linejoin="round"/>
<path d="M31.8193 6.53162C31.8193 6.53162 32.6096 11.273 38.1412 11.273" stroke="url(#paint11_radial_608_1192)" stroke-width="2.34375" stroke-linecap="round" stroke-linejoin="round"/>
<defs>
<filter id="filter0_i_608_1192" x="1" y="1" width="46.125" height="50.3739" filterUnits="userSpaceOnUse" color-interpolation-filters="sRGB">
<feFlood flood-opacity="0" result="BackgroundImageFix"/>
<feBlend mode="normal" in="SourceGraphic" in2="BackgroundImageFix" result="shape"/>
<feColorMatrix in="SourceAlpha" type="matrix" values="0 0 0 0 0 0 0 0 0 0 0 0 0 0 0 0 0 0 127 0" result="hardAlpha"/>
<feOffset dx="1.875" dy="3.75"/>
<feGaussianBlur stdDeviation="2.34375"/>
<feComposite in2="hardAlpha" operator="arithmetic" k2="-1" k3="1"/>
<feColorMatrix type="matrix" values="0 0 0 0 0 0 0 0 0 0 0 0 0 0 0 0 0 0 0.16 0"/>
<feBlend mode="normal" in2="shape" result="effect1_innerShadow_608_1192"/>
</filter>
<radialGradient id="paint0_radial_608_1192" cx="0" cy="0" r="1" gradientUnits="userSpaceOnUse" gradientTransform="translate(39.7215 14.434) rotate(136.548) scale(41.3649 64.6962)">
<stop stop-color="#BCDFFF"/>
<stop offset="0.457" stop-color="#BDB5FF"/>
<stop offset="1" stop-color="#AE89FF"/>
</radialGradient>
<radialGradient id="paint1_radial_608_1192" cx="0" cy="0" r="1" gradientUnits="userSpaceOnUse" gradientTransform="translate(16.0147 16.8047) rotate(132.51) scale(12.8641 6.65803)">
<stop offset="0.309" stop-color="#765FD7"/>
<stop offset="1" stop-color="#765FD7" stop-opacity="0"/>
</radialGradient>
<radialGradient id="paint2_radial_608_1192" cx="0" cy="0" r="1" gradientUnits="userSpaceOnUse" gradientTransform="translate(32.2141 18.0691) rotate(132.51) scale(11.5777 5.99222)">
<stop offset="0.053" stop-color="#765FD7"/>
<stop offset="1" stop-color="#765FD7" stop-opacity="0"/>
</radialGradient>
<linearGradient id="paint3_linear_608_1192" x1="30.4202" y1="16.8047" x2="29.3329" y2="23.174" gradientUnits="userSpaceOnUse">
<stop stop-color="#553B3E"/>
<stop offset="1" stop-color="#3D2432"/>
</linearGradient>
<linearGradient id="paint4_linear_608_1192" x1="30.42" y1="16.8047" x2="29.3327" y2="23.174" gradientUnits="userSpaceOnUse">
<stop stop-color="#553B3E"/>
<stop offset="1" stop-color="#3D2432"/>
</linearGradient>
<linearGradient id="paint5_linear_608_1192" x1="23.1247" y1="0.999951" x2="23.1247" y2="15.2242" gradientUnits="userSpaceOnUse">
<stop stop-color="#5DA0FF"/>
<stop offset="1" stop-color="#5DA0FF" stop-opacity="0"/>
</linearGradient>
<radialGradient id="paint6_radial_608_1192" cx="0" cy="0" r="1" gradientUnits="userSpaceOnUse" gradientTransform="translate(23.1263 42.8824) rotate(-90) scale(24.4973)">
<stop stop-color="#F4BCFF"/>
<stop offset="1" stop-color="#F4BCFF" stop-opacity="0"/>
</radialGradient>
<linearGradient id="paint7_linear_608_1192" x1="26.077" y1="31.029" x2="26.077" y2="32.6095" gradientUnits="userSpaceOnUse">
<stop stop-color="#FFF2FF"/>
<stop offset="0.717" stop-color="#FFECFF"/>
<stop offset="0.988" stop-color="#383B64"/>
</linearGradient>
<linearGradient id="paint8_linear_608_1192" x1="26.2418" y1="32.6094" x2="26.2418" y2="40.5117" gradientUnits="userSpaceOnUse">
<stop stop-color="#FFF7FF"/>
<stop offset="1" stop-color="#FFE1FF"/>
</linearGradient>
<linearGradient id="paint9_linear_608_1192" x1="12.8537" y1="5.74138" x2="12.8537" y2="8.11209" gradientUnits="userSpaceOnUse">
<stop offset="0.03" stop-color="#524049"/>
<stop offset="1" stop-color="#4A2C42"/>
</linearGradient>
<radialGradient id="paint10_radial_608_1192" cx="0" cy="0" r="1" gradientUnits="userSpaceOnUse" gradientTransform="translate(8.90254 5.74138) rotate(54.4623) scale(6.79786)">
<stop offset="0.542" stop-color="#493032"/>
<stop offset="0.807" stop-color="#5E445A"/>
<stop offset="0.955" stop-color="#4A2C42"/>
</radialGradient>
<radialGradient id="paint11_radial_608_1192" cx="0" cy="0" r="1" gradientUnits="userSpaceOnUse" gradientTransform="translate(37.3502 5.74278) rotate(125.538) scale(6.79785)">
<stop stop-color="#C2B4B5"/>
<stop offset="0.887" stop-color="#462B45"/>
<stop offset="1" stop-color="#4A2C42"/>
</radialGradient>
</defs>
</svg>
