<svg width="60" height="61" viewBox="0 0 60 61" fill="none" xmlns="http://www.w3.org/2000/svg">
<path d="M29.878 0.328247C13.3784 0.328247 0 13.8017 0 30.4184C0 47.0352 13.3784 60.5086 29.878 60.5086C46.3777 60.5086 59.7561 47.0352 59.7561 30.4184C59.7561 13.8017 46.3777 0.328247 29.878 0.328247ZM44.2368 23.0101C44.2569 23.3257 44.2569 23.6548 44.2569 23.9772C44.2569 33.8371 36.8007 45.1948 23.1755 45.1948C18.9739 45.1948 15.0791 43.9657 11.7978 41.85C12.3981 41.9172 12.9716 41.944 13.5852 41.944C17.0532 41.944 20.241 40.7619 22.782 38.7604C19.5274 38.6932 16.7931 36.5439 15.8594 33.5886C16.9998 33.7565 18.0269 33.7565 19.2006 33.4543C17.5248 33.1114 16.0186 32.1948 14.9378 30.8603C13.857 29.5257 13.2683 27.8554 13.2717 26.1333V26.0392C14.2521 26.5967 15.4059 26.9392 16.613 26.9863C15.5982 26.3052 14.766 25.3824 14.1901 24.2998C13.6143 23.2173 13.3126 22.0083 13.3117 20.7802C13.3117 19.3898 13.6719 18.1204 14.3188 17.0189C16.1788 19.3249 18.4999 21.211 21.1311 22.5544C23.7624 23.8979 26.6449 24.6687 29.5913 24.8168C28.5442 19.7458 32.3056 15.642 36.8274 15.642C38.9615 15.642 40.8822 16.542 42.2361 17.9928C43.9101 17.6771 45.5107 17.0458 46.9379 16.1995C46.3843 17.9256 45.2239 19.3831 43.6833 20.3033C45.1772 20.1421 46.6178 19.7257 47.9516 19.1413C46.9445 20.6324 45.6841 21.9556 44.2368 23.0101Z" fill="#1DA0F2"/>
</svg>
