<svg width="61" height="61" viewBox="0 0 61 61" fill="none" xmlns="http://www.w3.org/2000/svg">
<path d="M30.5001 0.819702C38.618 0.819702 39.6309 0.849792 42.8158 1.00024C45.9979 1.15069 48.164 1.6532 50.0702 2.39944C52.0422 3.16373 53.7034 4.19883 55.3646 5.86883C56.8839 7.37303 58.0595 9.19256 58.8096 11.2008C59.5476 13.1176 60.0495 15.3021 60.1989 18.5067C60.3393 21.7143 60.3782 22.7344 60.3782 30.9099C60.3782 39.0854 60.3483 40.1054 60.1989 43.313C60.0495 46.5176 59.5476 48.6992 58.8096 50.6189C58.0617 52.6283 56.8858 54.4483 55.3646 55.9509C53.8706 57.4805 52.064 58.6643 50.0702 59.4203C48.167 60.1635 45.9979 60.6691 42.8158 60.8195C39.6309 60.9609 38.618 61 30.5001 61C22.3823 61 21.3694 60.97 18.1844 60.8195C15.0024 60.6691 12.8362 60.1635 10.93 59.4203C8.93512 58.6665 7.1281 57.4823 5.63561 55.9509C4.11603 54.447 2.9404 52.6274 2.19067 50.6189C1.44969 48.7022 0.950729 46.5176 0.801338 43.313C0.660912 40.1054 0.62207 39.0854 0.62207 30.9099C0.62207 22.7344 0.651948 21.7143 0.801338 18.5067C0.950729 15.2991 1.44969 13.1206 2.19067 11.2008C2.93832 9.19133 4.11423 7.3713 5.63561 5.86883C7.12853 4.33794 8.93542 3.15388 10.93 2.39944C12.8362 1.6532 14.9994 1.15069 18.1844 1.00024C21.3694 0.858819 22.3823 0.819702 30.5001 0.819702ZM30.5001 15.8648C26.538 15.8648 22.7382 17.4499 19.9366 20.2714C17.135 23.0929 15.5611 26.9197 15.5611 30.9099C15.5611 34.9001 17.135 38.7269 19.9366 41.5484C22.7382 44.3699 26.538 45.955 30.5001 45.955C34.4622 45.955 38.262 44.3699 41.0636 41.5484C43.8652 38.7269 45.4391 34.9001 45.4391 30.9099C45.4391 26.9197 43.8652 23.0929 41.0636 20.2714C38.262 17.4499 34.4622 15.8648 30.5001 15.8648ZM49.9209 15.1125C49.9209 14.115 49.5274 13.1583 48.827 12.4529C48.1266 11.7475 47.1766 11.3513 46.1861 11.3513C45.1956 11.3513 44.2456 11.7475 43.5452 12.4529C42.8448 13.1583 42.4513 14.115 42.4513 15.1125C42.4513 16.1101 42.8448 17.0668 43.5452 17.7722C44.2456 18.4775 45.1956 18.8738 46.1861 18.8738C47.1766 18.8738 48.1266 18.4775 48.827 17.7722C49.5274 17.0668 49.9209 16.1101 49.9209 15.1125ZM30.5001 21.8828C32.8774 21.8828 35.1572 22.8339 36.8382 24.5268C38.5192 26.2197 39.4635 28.5157 39.4635 30.9099C39.4635 33.304 38.5192 35.6001 36.8382 37.293C35.1572 38.9859 32.8774 39.9369 30.5001 39.9369C28.1229 39.9369 25.843 38.9859 24.162 37.293C22.4811 35.6001 21.5367 33.304 21.5367 30.9099C21.5367 28.5157 22.4811 26.2197 24.162 24.5268C25.843 22.8339 28.1229 21.8828 30.5001 21.8828Z" fill="#FF3F88"/>
</svg>
