<svg width="54" height="60" viewBox="0 0 54 60" fill="none" xmlns="http://www.w3.org/2000/svg">
<path d="M1.63234 45.6042L24.9798 58.5627C26.0999 59.1844 27.9327 59.1844 29.0527 58.5627L52.4003 45.6042C52.9604 45.2935 53.2403 44.8837 53.2403 44.474H53.4883V15.5261H0.792225V44.474C0.792225 44.8837 1.07219 45.2935 1.63234 45.6042Z" fill="#FF473E"/>
<path d="M0.792225 15.5261V44.474C0.792225 44.8837 1.07219 45.2935 1.63234 45.6042L24.9798 58.5627C25.5623 58.8859 26.3372 59.0399 27.1047 59.0267C27.0865 44.5312 26.6745 30.0174 27.125 15.526L0.792225 15.5261Z" fill="#FF6E83"/>
<path d="M29.0528 29.6147L52.4003 16.6562C53.5204 16.0346 53.5204 15.0174 52.4003 14.3957L29.0528 1.43733C27.9327 0.815649 26.0999 0.815649 24.98 1.43733L1.63234 14.3958C0.512264 15.0175 0.512264 16.0347 1.63234 16.6564L24.9798 29.6147C26.0999 30.2364 27.9327 30.2364 29.0528 29.6147Z" fill="#FFA9BA"/>
<path d="M11.1689 8.68643C11.1701 8.82341 11.2082 8.95754 11.2792 9.0747C11.3502 9.19185 11.4514 9.28771 11.5723 9.35217L39.5466 24.2637C39.5851 24.2842 39.6253 24.3014 39.6668 24.315L39.7614 24.3679V52.1964C39.7614 52.329 39.796 52.4593 39.8618 52.5745C39.9276 52.6896 40.0224 52.7856 40.1367 52.8529C40.2509 52.9201 40.3808 52.9564 40.5134 52.9581C40.646 52.9598 40.7768 52.9268 40.8927 52.8625L45.5802 50.2608C45.6991 50.1949 45.7981 50.0983 45.8671 49.9812C45.936 49.8641 45.9724 49.7306 45.9723 49.5947V22.5144C45.9722 22.0498 45.8678 21.591 45.6667 21.1721C45.4657 20.7532 45.1731 20.3847 44.8107 20.0939L44.783 20.0724C44.7216 20.0243 44.6634 19.982 44.6035 19.9416C44.5145 19.8812 44.4225 19.8253 44.3279 19.7742L17.1708 5.29831C17.0586 5.23848 16.9332 5.2077 16.806 5.20878C16.6789 5.20987 16.554 5.24278 16.4429 5.30452L11.5609 8.01401C11.4412 8.08051 11.3416 8.17806 11.2726 8.29639C11.2036 8.41472 11.1678 8.54946 11.1689 8.68643ZM8.58929 20.4674C8.76654 20.2653 8.96934 20.0871 9.19258 19.9374C9.20723 19.9274 9.22187 19.9174 9.2391 19.9062C9.3116 19.859 9.38609 19.8148 9.46234 19.7739L36.6193 5.29819C36.7315 5.23833 36.8569 5.20753 36.984 5.20862C37.1112 5.2097 37.2361 5.24263 37.3472 5.3044L42.2291 8.01389C42.349 8.08034 42.4487 8.17789 42.5177 8.29625C42.5867 8.41461 42.6225 8.5494 42.6214 8.68641C42.6202 8.82343 42.5821 8.95759 42.5111 9.07476C42.44 9.19193 42.3387 9.28777 42.2178 9.35217L14.2435 24.2637C14.2046 24.2844 14.1643 24.3015 14.1231 24.3151L14.0287 24.368V52.1965C14.0287 52.3291 13.9941 52.4595 13.9282 52.5746C13.8624 52.6897 13.7677 52.7857 13.6534 52.853C13.5391 52.9203 13.4093 52.9565 13.2767 52.9582C13.1441 52.9599 13.0133 52.927 12.8973 52.8626L8.20984 50.2609C8.09103 50.195 7.99202 50.0984 7.92307 49.9813C7.85413 49.8642 7.81776 49.7307 7.81773 49.5948V22.5144C7.81809 21.7611 8.09231 21.0336 8.58929 20.4674Z" fill="#FFD4DE"/>
<path d="M17.6714 16.0644C17.6714 17.9759 20.0159 19.3631 23.2459 19.3631C24.5632 19.3631 25.7329 19.1322 26.6566 18.7293C26.7745 18.6781 26.9023 18.6535 27.0308 18.6573C27.1593 18.6612 27.2854 18.6933 27.4001 18.7514C28.3628 19.2373 29.6393 19.5204 31.0971 19.5204C34.3272 19.5204 36.6716 18.1332 36.6716 16.2217C36.6716 15.2594 36.0773 14.43 35.0748 13.8435C34.6799 13.6125 34.5141 13.1195 34.7097 12.706C35.4242 11.1949 35.4012 9.77733 34.5249 8.901C34.071 8.44713 33.4495 8.20725 32.7272 8.20725C32.2198 8.20725 31.6688 8.32713 31.1027 8.55225C30.8852 8.639 30.6423 8.63672 30.4264 8.5459C30.2106 8.45509 30.0391 8.28302 29.9491 8.06686C29.3672 6.67807 28.4045 5.82272 27.2502 5.82272C26.1156 5.82272 25.1658 6.64901 24.5812 7.9962C24.3871 8.44338 23.8749 8.65678 23.4243 8.47081C22.8327 8.2267 22.2564 8.09616 21.7272 8.09616C20.8149 8.09616 20.2461 8.47338 19.9295 8.78991C19.0681 9.65135 19.0311 11.0357 19.7086 12.5178C19.8987 12.9335 19.7302 13.4255 19.3322 13.6504C18.2914 14.2384 17.6714 15.0821 17.6714 16.0644Z" fill="#FF6E83"/>
</svg>
