<svg width="48" height="60" viewBox="0 0 48 60" fill="none" xmlns="http://www.w3.org/2000/svg">
<path d="M43.2654 37.7301C44.3042 25.8582 39.5181 15.7417 32.5758 15.1344C25.6331 14.527 19.1632 23.6586 18.1246 35.5305C17.0859 47.4022 21.8719 57.5185 28.8144 58.1259C35.7567 58.7332 42.2268 49.6018 43.2654 37.7301Z" fill="#D04B06"/>
<path d="M46.9635 37.7297C48.0021 25.858 43.2161 15.7416 36.2735 15.1342C29.3312 14.5268 22.8612 23.6584 21.8226 35.5301C20.784 47.4019 25.5698 57.5181 32.5123 58.1257C39.4547 58.733 45.9247 49.6014 46.9635 37.7297Z" fill="#C65C14"/>
<path d="M18.3253 58.1259C25.2678 57.5185 30.0538 47.4021 29.0152 35.5303C27.9764 23.6586 21.5065 14.527 14.564 15.1344C7.6217 15.7417 2.83569 25.8582 3.87428 37.7299C4.91287 49.6016 11.3829 58.7332 18.3253 58.1259Z" fill="#D04B06"/>
<path d="M14.6285 58.1255C21.5708 57.5181 26.3568 47.4017 25.3182 35.53C24.2796 23.6583 17.8096 14.5267 10.8672 15.134C3.92471 15.7414 -0.861488 25.8578 0.177285 37.7295C1.21606 49.6012 7.68594 58.7328 14.6285 58.1255Z" fill="#C65C14"/>
<path d="M46.9304 39.3742C47.9689 27.5025 43.1829 17.3862 36.2404 16.7789C29.2981 16.1715 22.828 25.3029 21.7894 37.1748C20.7507 49.0465 25.5367 59.1628 32.4792 59.7702C39.4215 60.3775 45.8916 51.2459 46.9304 39.3742Z" fill="#F17008"/>
<path d="M18.0306 22.3252L17.5451 17.894C17.5451 17.894 17.8125 15.5253 22.6911 15.1859C27.5697 14.8465 20.4472 4.31782 20.4472 4.31782C20.4472 4.31782 22.085 -1.56273 24.7723 0.529537C27.4594 2.62181 27.5673 14.8458 27.5673 14.8458C27.5673 14.8458 29.3003 19.4455 29.4783 21.0707" fill="#8F6646"/>
<path d="M43.2323 39.3746C44.271 27.5028 39.485 17.3866 32.5427 16.779C25.6 16.1717 19.1301 25.3033 18.0915 37.175C17.0527 49.0467 21.8388 59.1632 28.7811 59.7705C35.7238 60.3779 42.1937 51.2463 43.2323 39.3746Z" fill="#F48D39"/>
<path d="M14.5946 59.7703C21.5369 59.163 26.3231 49.0467 25.2843 37.175C24.2458 25.3031 17.7759 16.1717 10.8334 16.779C3.89103 17.3864 -0.895169 27.5027 0.143604 39.3744C1.18219 51.2461 7.65207 60.3777 14.5946 59.7703Z" fill="#F17008"/>
<path d="M18.2925 59.7707C25.2348 59.1633 30.0208 49.0469 28.9821 37.1752C27.9435 25.3035 21.4736 16.1719 14.5311 16.7792C7.58876 17.3866 2.80275 27.503 3.84133 39.3748C4.87992 51.2465 11.3502 60.3781 18.2925 59.7707Z" fill="#F48D39"/>
<path d="M22.6832 59.8524C29.6521 59.8524 35.3016 50.1917 35.3016 38.2747C35.3016 26.3576 29.6521 16.697 22.6832 16.697C15.7142 16.697 10.0648 26.3576 10.0648 38.2747C10.0648 50.1917 15.7142 59.8524 22.6832 59.8524Z" fill="#F17008"/>
<path d="M23.4323 33.8144C25.8646 33.8144 27.8364 31.8427 27.8364 29.4103C27.8364 26.978 25.8646 25.0062 23.4323 25.0062C20.9999 25.0062 19.0281 26.978 19.0281 29.4103C19.0281 31.8427 20.9999 33.8144 23.4323 33.8144Z" fill="#F7F3F0"/>
<path d="M24.9462 32.7845C25.7825 32.7845 26.4604 32.1066 26.4604 31.2703C26.4604 30.4341 25.7825 29.7562 24.9462 29.7562C24.11 29.7562 23.4321 30.4341 23.4321 31.2703C23.4321 32.1066 24.11 32.7845 24.9462 32.7845Z" fill="#160C06"/>
<path d="M25.3097 31.8006C25.5686 31.8006 25.7785 31.5907 25.7785 31.3318C25.7785 31.0729 25.5686 30.863 25.3097 30.863C25.0508 30.863 24.841 31.0729 24.841 31.3318C24.841 31.5907 25.0508 31.8006 25.3097 31.8006Z" fill="#F9F6F4"/>
</svg>
