<svg width="34" height="55" viewBox="0 0 34 55" fill="none" xmlns="http://www.w3.org/2000/svg">
<path d="M17 0C7.6092 0 0 7.5786 0 16.966C0 33.1976 17 54.366 17 54.366C17 54.366 34 33.1942 34 16.966C34 7.582 26.3908 0 17 0ZM17 26.3534C14.5653 26.3534 12.2303 25.3862 10.5088 23.6646C8.78718 21.9431 7.82 19.6081 7.82 17.1734C7.82 14.7387 8.78718 12.4037 10.5088 10.6822C12.2303 8.96058 14.5653 7.9934 17 7.9934C19.4347 7.9934 21.7697 8.96058 23.4912 10.6822C25.2128 12.4037 26.18 14.7387 26.18 17.1734C26.18 19.6081 25.2128 21.9431 23.4912 23.6646C21.7697 25.3862 19.4347 26.3534 17 26.3534Z" fill="#FFAE85"/>
</svg>
